#!OML:ASF F:\VICON\USERDATA\INSTALL\rory3\rory3.ASF
:FULLY-SPECIFIED
:DEGREES
147
root 1.31006 17.3152 0.249187 -0.564347 -0.854417 5.86433
lowerback 7.36836 -1.26789 -4.52338
upperback 0.409279 -1.99171 1.94582
thorax -3.48537 -0.906096 4.77304
lowerneck -16.1461 -1.73064 -9.41317
upperneck 23.1388 -0.72562 3.36241
head 10.1067 -0.774584 2.66961
rclavicle -2.97183e-014 0
rhumerus -34.5893 -13.5205 -77.0733
rradius 28.1617
rwrist 7.50489
rhand -15.94 17.8137
rfingers 7.12502
rthumb 10.258 -11.9162
lclavicle -2.97183e-014 0
lhumerus -28.7401 3.41357 84.6705
lradius 28.731
lwrist -13.8074
lhand -10.8235 26.7468
lfingers 7.12502
lthumb 15.1905 56.1692
rfemur -34.9515 -6.52268 15.4544
rtibia 49.8426
rfoot -7.73275 -5.97505
rtoes -2.27347
lfemur 1.27586 -0.594794 -30.9442
ltibia 23.353
lfoot -18.4312 3.52302
ltoes 1.00267
148
root 1.29576 17.3042 0.428485 -0.351783 -0.738093 6.07009
lowerback 7.21496 -1.35558 -4.78903
upperback 0.416374 -2.1248 1.92154
thorax -3.36817 -0.972286 4.9047
lowerneck -16.3465 -1.74667 -9.34221
upperneck 23.2241 -0.739129 3.33332
head 10.176 -0.779166 2.64735
rclavicle -9.34288e-015 -1.27222e-014
rhumerus -34.7959 -14.0739 -76.8071
rradius 27.5022
rwrist 8.01502
rhand -16.0533 18.8518
rfingers 7.12502
rthumb 10.1487 -10.8835
lclavicle -9.34288e-015 -1.27222e-014
lhumerus -28.1423 3.0893 84.4658
lradius 28.9989
lwrist -13.824
lhand -10.5884 26.8269
lfingers 7.12502
lthumb 15.4169 56.232
rfemur -35.0608 -5.99243 15.1267
rtibia 46.4598
rfoot -6.99003 -6.5115
rtoes -1.3318
lfemur 2.15073 -0.491141 -31.1302
ltibia 22.5081
lfoot -18.4384 3.51207
ltoes 1.01857
149
root 1.27801 17.2876 0.615163 -0.222414 -0.595148 6.41206
lowerback 7.21702 -1.45564 -5.23811
upperback 0.311582 -2.2982 1.87833
thorax -3.44244 -1.04714 5.13279
lowerneck -16.437 -1.70261 -9.219
upperneck 23.3345 -0.669606 3.20627
head 10.2274 -0.753773 2.59258
rclavicle 9.54166e-015 -4.77083e-015
rhumerus -35.3797 -14.3584 -76.5351
rradius 27.0974
rwrist 7.98472
rhand -16.1652 19.103
rfingers 7.12502
rthumb 10.0407 -10.6375
lclavicle 9.54166e-015 -4.77083e-015
lhumerus -27.5508 3.01441 84.1823
lradius 28.9429
lwrist -13.966
lhand -10.6002 26.2354
lfingers 7.12502
lthumb 15.4056 55.6414
rfemur -34.9311 -5.31914 14.5451
rtibia 42.9921
rfoot -6.4457 -7.18936
rtoes -0.864473
lfemur 3.14214 -0.377513 -31.4373
ltibia 21.7225
lfoot -18.5753 3.50684
ltoes 0.435316
150
root 1.25977 17.2714 0.808314 -0.0767581 -0.511735 6.4835
lowerback 7.07276 -1.52571 -5.39233
upperback 0.232206 -2.39753 1.89816
thorax -3.42479 -1.09281 5.24615
lowerneck -16.2618 -1.69528 -9.29857
upperneck 23.2234 -0.682367 3.30696
head 10.155 -0.753057 2.638
rclavicle 1.83876e-014 4.77083e-015
rhumerus -35.9721 -14.6067 -76.259
rradius 26.9102
rwrist 8.1351
rhand -16.0506 18.9338
rfingers 7.12502
rthumb 10.1513 -10.8013
lclavicle 1.83876e-014 4.77083e-015
lhumerus -27.2012 2.77075 84.0026
lradius 29.3039
lwrist -13.7056
lhand -11.101 25.6419
lfingers 7.12502
lthumb 14.9232 55.0843
rfemur -34.7148 -4.4967 14.2202
rtibia 39.4213
rfoot -6.13668 -8.05916
rtoes -1.09826
lfemur 4.12763 -0.183998 -31.4303
ltibia 20.9587
lfoot -18.6972 3.50398
ltoes -0.0692032
151
root 1.2437 17.2506 1.00225 0.155202 -0.43106 6.50087
lowerback 6.67357 -1.62251 -5.50808
upperback 0.277536 -2.51234 1.95288
thorax -3.13142 -1.15961 5.3604
lowerneck -16.421 -1.73463 -9.42651
upperneck 23.2179 -0.71947 3.43954
head 10.1868 -0.764959 2.70209
rclavicle -2.60408e-014 1.74931e-014
rhumerus -36.1895 -14.7055 -76.1566
rradius 26.8311
rwrist 8.16398
rhand -15.9507 18.1673
rfingers 7.12502
rthumb 10.2477 -11.5631
lclavicle -2.60408e-014 1.74931e-014
lhumerus -26.8931 2.48672 83.8425
lradius 29.9638
lwrist -13.3284
lhand -11.4987 25.344
lfingers 7.12502
lthumb 14.54 54.8145
rfemur -34.4962 -3.67331 13.9044
rtibia 35.7499
rfoot -6.02206 -8.84782
rtoes -1.82392
lfemur 5.01176 0.10032 -31.3541
ltibia 20.2164
lfoot -18.7191 3.30021
ltoes -0.772724
152
root 1.23035 17.234 1.19198 0.388544 -0.182139 6.56676
lowerback 6.50445 -1.78603 -5.62967
upperback 0.234567 -2.72921 2.01677
thorax -3.04401 -1.26784 5.50724
lowerneck -16.8676 -1.76442 -9.48272
upperneck 23.4488 -0.694111 3.42637
head 10.3547 -0.763504 2.71515
rclavicle -2.71341e-014 0
rhumerus -36.4194 -14.8572 -75.9149
rradius 26.6141
rwrist 8.23055
rhand -15.7244 17.5735
rfingers 7.12502
rthumb 10.466 -12.146
lclavicle -2.71341e-014 0
lhumerus -26.6521 2.37408 83.6565
lradius 30.5644
lwrist -12.9281
lhand -11.685 25.4752
lfingers 7.12502
lthumb 14.3605 54.9585
rfemur -34.0896 -2.97668 13.4368
rtibia 32.0118
rfoot -6.10185 -9.54376
rtoes -2.51617
lfemur 5.81993 0.295978 -31.3003
ltibia 19.5092
lfoot -18.5109 2.83273
ltoes -1.80703
